<mxfile host="app.diagrams.net" modified="2023-06-19T15:29:15.127Z" agent="Mozilla/5.0 (Windows NT 10.0; Win64; x64) AppleWebKit/537.36 (KHTML, like Gecko) Chrome/114.0.0.0 Safari/537.36" etag="qdpPRDDo7XDe73CrBNc7" version="21.3.7" type="github">
  <diagram name="Page-1" id="1iFykEma4SjJ6AifyjPA">
    <mxGraphModel dx="1832" dy="1944" grid="1" gridSize="10" guides="1" tooltips="1" connect="1" arrows="1" fold="1" page="1" pageScale="1" pageWidth="827" pageHeight="1169" math="0" shadow="0">
      <root>
        <mxCell id="0" />
        <mxCell id="1" parent="0" />
        <mxCell id="lOYmVdTBjmAg4O3prtzg-1" value="Internaute&lt;br&gt;" style="shape=umlActor;verticalLabelPosition=bottom;verticalAlign=top;html=1;outlineConnect=0;" parent="1" vertex="1">
          <mxGeometry x="130" y="90" width="30" height="60" as="geometry" />
        </mxCell>
        <mxCell id="lOYmVdTBjmAg4O3prtzg-2" value="Membre" style="shape=umlActor;verticalLabelPosition=bottom;verticalAlign=top;html=1;outlineConnect=0;" parent="1" vertex="1">
          <mxGeometry x="130" y="270" width="30" height="60" as="geometry" />
        </mxCell>
        <mxCell id="lOYmVdTBjmAg4O3prtzg-3" value="Admin&lt;br&gt;" style="shape=umlActor;verticalLabelPosition=bottom;verticalAlign=top;html=1;outlineConnect=0;" parent="1" vertex="1">
          <mxGeometry x="130" y="660" width="30" height="60" as="geometry" />
        </mxCell>
        <mxCell id="lOYmVdTBjmAg4O3prtzg-13" value="&lt;font style=&quot;font-size: 18px;&quot;&gt;Be FIT&lt;/font&gt;" style="swimlane;whiteSpace=wrap;html=1;startSize=23;" parent="1" vertex="1">
          <mxGeometry x="220" y="-40" width="860" height="880" as="geometry" />
        </mxCell>
        <mxCell id="lOYmVdTBjmAg4O3prtzg-18" value="Consulter les cours" style="ellipse;whiteSpace=wrap;html=1;" parent="lOYmVdTBjmAg4O3prtzg-13" vertex="1">
          <mxGeometry x="240" y="130" width="150" height="60" as="geometry" />
        </mxCell>
        <mxCell id="lOYmVdTBjmAg4O3prtzg-21" value="Filtrer les Cours" style="ellipse;whiteSpace=wrap;html=1;" parent="lOYmVdTBjmAg4O3prtzg-13" vertex="1">
          <mxGeometry x="530" y="140" width="120" height="40" as="geometry" />
        </mxCell>
        <mxCell id="lOYmVdTBjmAg4O3prtzg-22" value="Trier les Cours" style="ellipse;whiteSpace=wrap;html=1;" parent="lOYmVdTBjmAg4O3prtzg-13" vertex="1">
          <mxGeometry x="530" y="200" width="120" height="40" as="geometry" />
        </mxCell>
        <mxCell id="0ztzo1w5mw3XJSYibWvr-3" value="CRUD Coach" style="ellipse;whiteSpace=wrap;html=1;" vertex="1" parent="lOYmVdTBjmAg4O3prtzg-13">
          <mxGeometry x="236" y="700" width="154" height="60" as="geometry" />
        </mxCell>
        <mxCell id="0ztzo1w5mw3XJSYibWvr-23" value="Reserver un cours" style="ellipse;whiteSpace=wrap;html=1;" vertex="1" parent="lOYmVdTBjmAg4O3prtzg-13">
          <mxGeometry x="240" y="370" width="150" height="60" as="geometry" />
        </mxCell>
        <mxCell id="0ztzo1w5mw3XJSYibWvr-24" value="S&#39;inscrire" style="ellipse;whiteSpace=wrap;html=1;" vertex="1" parent="lOYmVdTBjmAg4O3prtzg-13">
          <mxGeometry x="240" y="50" width="150" height="60" as="geometry" />
        </mxCell>
        <mxCell id="0ztzo1w5mw3XJSYibWvr-31" value="Approvisioer son compte" style="ellipse;whiteSpace=wrap;html=1;" vertex="1" parent="lOYmVdTBjmAg4O3prtzg-13">
          <mxGeometry x="236" y="300" width="150" height="60" as="geometry" />
        </mxCell>
        <mxCell id="0ztzo1w5mw3XJSYibWvr-33" value="Consulter les Abonnements" style="ellipse;whiteSpace=wrap;html=1;" vertex="1" parent="lOYmVdTBjmAg4O3prtzg-13">
          <mxGeometry x="240" y="230" width="150" height="60" as="geometry" />
        </mxCell>
        <mxCell id="0ztzo1w5mw3XJSYibWvr-37" value="Acheter un Abonnement" style="ellipse;whiteSpace=wrap;html=1;" vertex="1" parent="lOYmVdTBjmAg4O3prtzg-13">
          <mxGeometry x="240" y="450" width="150" height="60" as="geometry" />
        </mxCell>
        <mxCell id="0ztzo1w5mw3XJSYibWvr-40" value="Mofdifier son profil&lt;br&gt;" style="ellipse;whiteSpace=wrap;html=1;" vertex="1" parent="lOYmVdTBjmAg4O3prtzg-13">
          <mxGeometry x="240" y="525" width="150" height="60" as="geometry" />
        </mxCell>
        <mxCell id="0ztzo1w5mw3XJSYibWvr-41" style="edgeStyle=orthogonalEdgeStyle;rounded=0;orthogonalLoop=1;jettySize=auto;html=1;exitX=0.5;exitY=1;exitDx=0;exitDy=0;" edge="1" parent="lOYmVdTBjmAg4O3prtzg-13" source="0ztzo1w5mw3XJSYibWvr-40" target="0ztzo1w5mw3XJSYibWvr-40">
          <mxGeometry relative="1" as="geometry" />
        </mxCell>
        <mxCell id="0ztzo1w5mw3XJSYibWvr-42" value="" style="endArrow=none;dashed=1;html=1;dashPattern=1 3;strokeWidth=2;rounded=0;entryX=1.019;entryY=0.697;entryDx=0;entryDy=0;entryPerimeter=0;exitX=0;exitY=0.5;exitDx=0;exitDy=0;" edge="1" parent="lOYmVdTBjmAg4O3prtzg-13" source="0ztzo1w5mw3XJSYibWvr-43" target="0ztzo1w5mw3XJSYibWvr-23">
          <mxGeometry width="50" height="50" relative="1" as="geometry">
            <mxPoint x="640" y="460" as="sourcePoint" />
            <mxPoint x="790" y="410" as="targetPoint" />
          </mxGeometry>
        </mxCell>
        <mxCell id="0ztzo1w5mw3XJSYibWvr-43" value="Se connecter" style="ellipse;whiteSpace=wrap;html=1;" vertex="1" parent="lOYmVdTBjmAg4O3prtzg-13">
          <mxGeometry x="640" y="430" width="150" height="60" as="geometry" />
        </mxCell>
        <mxCell id="0ztzo1w5mw3XJSYibWvr-46" value="" style="endArrow=none;dashed=1;html=1;dashPattern=1 3;strokeWidth=2;rounded=0;entryX=1;entryY=0.5;entryDx=0;entryDy=0;exitX=0;exitY=0.5;exitDx=0;exitDy=0;" edge="1" parent="lOYmVdTBjmAg4O3prtzg-13" source="0ztzo1w5mw3XJSYibWvr-43" target="0ztzo1w5mw3XJSYibWvr-31">
          <mxGeometry width="50" height="50" relative="1" as="geometry">
            <mxPoint x="660" y="480" as="sourcePoint" />
            <mxPoint x="413" y="392" as="targetPoint" />
          </mxGeometry>
        </mxCell>
        <mxCell id="0ztzo1w5mw3XJSYibWvr-47" value="" style="endArrow=none;dashed=1;html=1;dashPattern=1 3;strokeWidth=2;rounded=0;entryX=1.019;entryY=0.697;entryDx=0;entryDy=0;entryPerimeter=0;exitX=0;exitY=0.5;exitDx=0;exitDy=0;" edge="1" parent="lOYmVdTBjmAg4O3prtzg-13" source="lOYmVdTBjmAg4O3prtzg-22">
          <mxGeometry width="50" height="50" relative="1" as="geometry">
            <mxPoint x="640" y="250" as="sourcePoint" />
            <mxPoint x="393" y="162" as="targetPoint" />
          </mxGeometry>
        </mxCell>
        <mxCell id="0ztzo1w5mw3XJSYibWvr-49" value="" style="endArrow=none;dashed=1;html=1;dashPattern=1 3;strokeWidth=2;rounded=0;entryX=1;entryY=0.5;entryDx=0;entryDy=0;exitX=0;exitY=0.5;exitDx=0;exitDy=0;" edge="1" parent="lOYmVdTBjmAg4O3prtzg-13" source="lOYmVdTBjmAg4O3prtzg-21" target="lOYmVdTBjmAg4O3prtzg-18">
          <mxGeometry width="50" height="50" relative="1" as="geometry">
            <mxPoint x="540" y="230" as="sourcePoint" />
            <mxPoint x="403" y="172" as="targetPoint" />
          </mxGeometry>
        </mxCell>
        <mxCell id="0ztzo1w5mw3XJSYibWvr-45" value="" style="endArrow=none;dashed=1;html=1;dashPattern=1 3;strokeWidth=2;rounded=0;entryX=1;entryY=0.5;entryDx=0;entryDy=0;exitX=0;exitY=0.5;exitDx=0;exitDy=0;" edge="1" parent="lOYmVdTBjmAg4O3prtzg-13" source="0ztzo1w5mw3XJSYibWvr-43" target="0ztzo1w5mw3XJSYibWvr-40">
          <mxGeometry width="50" height="50" relative="1" as="geometry">
            <mxPoint x="650" y="470" as="sourcePoint" />
            <mxPoint x="403" y="382" as="targetPoint" />
          </mxGeometry>
        </mxCell>
        <mxCell id="0ztzo1w5mw3XJSYibWvr-44" value="" style="endArrow=none;dashed=1;html=1;dashPattern=1 3;strokeWidth=2;rounded=0;entryX=1;entryY=0.5;entryDx=0;entryDy=0;exitX=0;exitY=0.5;exitDx=0;exitDy=0;" edge="1" parent="lOYmVdTBjmAg4O3prtzg-13" source="0ztzo1w5mw3XJSYibWvr-43" target="0ztzo1w5mw3XJSYibWvr-37">
          <mxGeometry width="50" height="50" relative="1" as="geometry">
            <mxPoint x="650" y="470" as="sourcePoint" />
            <mxPoint x="403" y="382" as="targetPoint" />
          </mxGeometry>
        </mxCell>
        <mxCell id="0ztzo1w5mw3XJSYibWvr-57" value="CRUD Cours" style="ellipse;whiteSpace=wrap;html=1;" vertex="1" parent="lOYmVdTBjmAg4O3prtzg-13">
          <mxGeometry x="236" y="780" width="154" height="60" as="geometry" />
        </mxCell>
        <mxCell id="0ztzo1w5mw3XJSYibWvr-58" value="Gestion membres" style="ellipse;whiteSpace=wrap;html=1;" vertex="1" parent="lOYmVdTBjmAg4O3prtzg-13">
          <mxGeometry x="240" y="595" width="150" height="60" as="geometry" />
        </mxCell>
        <mxCell id="lOYmVdTBjmAg4O3prtzg-26" value="" style="swimlane;startSize=0;" parent="1" vertex="1">
          <mxGeometry x="1120" y="270" width="155" height="60" as="geometry" />
        </mxCell>
        <mxCell id="lOYmVdTBjmAg4O3prtzg-27" value="&lt;b&gt;&lt;font style=&quot;font-size: 14px;&quot;&gt;Service de&amp;nbsp; Paiement&lt;/font&gt;&lt;/b&gt;" style="text;html=1;align=center;verticalAlign=middle;resizable=0;points=[];autosize=1;strokeColor=none;fillColor=none;" parent="lOYmVdTBjmAg4O3prtzg-26" vertex="1">
          <mxGeometry x="-5" y="15" width="160" height="30" as="geometry" />
        </mxCell>
        <mxCell id="lOYmVdTBjmAg4O3prtzg-40" value="" style="endArrow=classic;html=1;rounded=0;exitX=0.5;exitY=0.5;exitDx=0;exitDy=0;exitPerimeter=0;entryX=0;entryY=0.5;entryDx=0;entryDy=0;" parent="1" source="lOYmVdTBjmAg4O3prtzg-1" target="lOYmVdTBjmAg4O3prtzg-18" edge="1">
          <mxGeometry width="50" height="50" relative="1" as="geometry">
            <mxPoint x="540" y="240" as="sourcePoint" />
            <mxPoint x="590" y="190" as="targetPoint" />
          </mxGeometry>
        </mxCell>
        <mxCell id="0ztzo1w5mw3XJSYibWvr-20" value="Coach" style="shape=umlActor;verticalLabelPosition=bottom;verticalAlign=top;html=1;outlineConnect=0;" vertex="1" parent="1">
          <mxGeometry x="130" y="480" width="30" height="60" as="geometry" />
        </mxCell>
        <mxCell id="0ztzo1w5mw3XJSYibWvr-26" value="" style="endArrow=classic;html=1;rounded=0;entryX=0;entryY=0.5;entryDx=0;entryDy=0;" edge="1" parent="1" target="lOYmVdTBjmAg4O3prtzg-18">
          <mxGeometry width="50" height="50" relative="1" as="geometry">
            <mxPoint x="150" y="310" as="sourcePoint" />
            <mxPoint x="476" y="170" as="targetPoint" />
            <Array as="points" />
          </mxGeometry>
        </mxCell>
        <mxCell id="0ztzo1w5mw3XJSYibWvr-27" value="" style="endArrow=classic;html=1;rounded=0;entryX=0;entryY=0.5;entryDx=0;entryDy=0;" edge="1" parent="1" target="0ztzo1w5mw3XJSYibWvr-23">
          <mxGeometry width="50" height="50" relative="1" as="geometry">
            <mxPoint x="150" y="310" as="sourcePoint" />
            <mxPoint x="476" y="170" as="targetPoint" />
          </mxGeometry>
        </mxCell>
        <mxCell id="0ztzo1w5mw3XJSYibWvr-50" value="" style="endArrow=classic;html=1;rounded=0;entryX=0;entryY=0.5;entryDx=0;entryDy=0;" edge="1" parent="1" target="0ztzo1w5mw3XJSYibWvr-33">
          <mxGeometry width="50" height="50" relative="1" as="geometry">
            <mxPoint x="150" y="310" as="sourcePoint" />
            <mxPoint x="470" y="390" as="targetPoint" />
          </mxGeometry>
        </mxCell>
        <mxCell id="0ztzo1w5mw3XJSYibWvr-52" value="" style="endArrow=classic;html=1;rounded=0;entryX=0;entryY=0.5;entryDx=0;entryDy=0;fontStyle=1" edge="1" parent="1" target="0ztzo1w5mw3XJSYibWvr-31">
          <mxGeometry width="50" height="50" relative="1" as="geometry">
            <mxPoint x="150" y="310" as="sourcePoint" />
            <mxPoint x="470" y="250" as="targetPoint" />
          </mxGeometry>
        </mxCell>
        <mxCell id="0ztzo1w5mw3XJSYibWvr-53" value="" style="endArrow=classic;html=1;rounded=0;entryX=0;entryY=0.5;entryDx=0;entryDy=0;exitX=1;exitY=0.5;exitDx=0;exitDy=0;" edge="1" parent="1" source="0ztzo1w5mw3XJSYibWvr-31" target="lOYmVdTBjmAg4O3prtzg-26">
          <mxGeometry width="50" height="50" relative="1" as="geometry">
            <mxPoint x="610" y="300" as="sourcePoint" />
            <mxPoint x="466" y="330" as="targetPoint" />
            <Array as="points" />
          </mxGeometry>
        </mxCell>
        <mxCell id="0ztzo1w5mw3XJSYibWvr-54" value="" style="endArrow=classic;html=1;rounded=0;exitX=0.5;exitY=0.5;exitDx=0;exitDy=0;exitPerimeter=0;entryX=0;entryY=0.5;entryDx=0;entryDy=0;" edge="1" parent="1" source="lOYmVdTBjmAg4O3prtzg-1" target="0ztzo1w5mw3XJSYibWvr-24">
          <mxGeometry width="50" height="50" relative="1" as="geometry">
            <mxPoint x="135" y="130" as="sourcePoint" />
            <mxPoint x="470" y="190" as="targetPoint" />
          </mxGeometry>
        </mxCell>
        <mxCell id="0ztzo1w5mw3XJSYibWvr-56" value="" style="endArrow=classic;html=1;rounded=0;exitX=0.5;exitY=0.5;exitDx=0;exitDy=0;exitPerimeter=0;entryX=0;entryY=0.5;entryDx=0;entryDy=0;" edge="1" parent="1" source="lOYmVdTBjmAg4O3prtzg-1" target="0ztzo1w5mw3XJSYibWvr-33">
          <mxGeometry width="50" height="50" relative="1" as="geometry">
            <mxPoint x="135" y="130" as="sourcePoint" />
            <mxPoint x="470" y="210" as="targetPoint" />
          </mxGeometry>
        </mxCell>
      </root>
    </mxGraphModel>
  </diagram>
</mxfile>
